<svg xmlns="http://www.w3.org/2000/svg" xmlns:xlink="http://www.w3.org/1999/xlink" width="800" zoomAndPan="magnify" viewBox="0 0 600 449.999984" height="600" preserveAspectRatio="xMidYMid meet" version="1.0"><defs><g/><clipPath id="042c66d4df"><path d="M 189.304688 89.015625 L 369.304688 89.015625 L 369.304688 269 L 189.304688 269 Z M 189.304688 89.015625 " clip-rule="nonzero"/></clipPath></defs><g clip-path="url(#042c66d4df)"><path fill="#000000" d="M 347.625 148.714844 C 334.457031 135.984375 316.671875 127.511719 297.683594 124.921875 C 291.875 124.121094 285.953125 123.734375 280 123.722656 C 268.089844 123.734375 256.078125 125.308594 244.71875 128.472656 L 244.683594 128.484375 C 244.683594 128.484375 232.796875 131.9375 220.566406 135.53125 C 217.90625 136.316406 215.242188 137.101562 212.664062 137.859375 C 212.648438 137.859375 212.632812 137.847656 212.617188 137.835938 L 212.617188 137.832031 C 210.011719 137.136719 207.632812 135.175781 206.835938 133.109375 C 206.28125 131.773438 205.972656 130.238281 205.972656 128.613281 C 205.980469 125.726562 206.933594 122.597656 209.164062 119.808594 C 211.398438 117.023438 214.929688 114.492188 220.375 112.972656 C 227.632812 110.9375 243.003906 109.003906 257.367188 106.652344 C 264.582031 105.464844 271.589844 104.160156 277.460938 102.597656 C 283.359375 100.945312 288.019531 99.40625 291.277344 96.324219 C 292.839844 94.777344 292.855469 92.265625 291.308594 90.707031 C 289.757812 89.152344 287.242188 89.136719 285.691406 90.6875 C 284.867188 91.660156 280.796875 93.554688 275.410156 94.914062 C 267.289062 97.089844 256.015625 98.875 245.347656 100.488281 C 234.644531 102.117188 224.613281 103.5625 218.246094 105.316406 C 211.429688 107.203125 206.308594 110.636719 202.953125 114.847656 C 199.589844 119.050781 198.023438 123.957031 198.023438 128.613281 C 198.023438 131.238281 198.519531 133.792969 199.480469 136.132812 C 200.25 137.964844 201.414062 139.484375 202.734375 140.828125 C 200.617188 141.464844 198.738281 142.039062 197.316406 142.484375 C 196.523438 142.730469 195.863281 142.9375 195.335938 143.117188 L 194.015625 143.59375 C 192.773438 144.128906 191.6875 144.917969 190.816406 145.992188 C 189.964844 147.058594 189.304688 148.492188 189.304688 150.175781 C 189.28125 151.84375 190.066406 153.574219 191.238281 154.730469 C 192.417969 155.914062 193.878906 156.65625 195.554688 157.175781 C 195.902344 157.28125 197.160156 157.746094 198.828125 158.390625 C 204.753906 160.679688 216.726562 165.46875 228.921875 169.707031 C 235.023438 171.820312 241.179688 173.800781 246.746094 175.265625 C 252.328125 176.734375 257.21875 177.71875 261.242188 177.734375 L 263.019531 177.65625 L 263.035156 177.65625 C 275.089844 176.484375 277.429688 175.707031 288.59375 174.578125 C 289.59375 174.472656 290.578125 174.425781 291.550781 174.425781 C 300.632812 174.425781 308.855469 178.675781 314.933594 185.484375 C 321.003906 192.277344 324.753906 201.570312 324.746094 211.160156 C 324.707031 220.949219 319.972656 228.355469 312.351562 233.789062 C 304.972656 239 294.867188 241.925781 284.75 242.089844 L 245.15625 218.199219 C 243.757812 217.359375 241.980469 217.464844 240.691406 218.445312 C 239.394531 219.445312 238.835938 221.136719 239.285156 222.703125 L 249.632812 258.730469 C 250.007812 260.019531 250.992188 261.039062 252.273438 261.433594 C 252.46875 261.472656 274.757812 268.46875 296.066406 268.5 C 297.070312 268.5 298.070312 268.484375 299.058594 268.453125 C 337.695312 267.195312 369.304688 237 369.304688 198.082031 C 369.308594 178.566406 360.785156 161.433594 347.625 148.714844 Z M 267.910156 257.199219 C 263.953125 256.351562 260.605469 255.503906 258.269531 254.875 C 257.578125 254.691406 257.171875 254.574219 256.667969 254.425781 L 249.71875 230.242188 L 280.1875 248.609375 L 282.21875 259.601562 C 277.054688 258.957031 272.125 258.089844 267.910156 257.199219 Z M 291.550781 166.476562 C 290.308594 166.476562 289.050781 166.539062 287.785156 166.671875 C 276.234375 167.84375 273.964844 168.613281 262.273438 169.738281 L 262.289062 169.738281 L 261.242188 169.785156 C 258.199219 169.808594 252.6875 168.722656 246.476562 166.957031 C 237.113281 164.328125 225.917969 160.285156 216.648438 156.765625 C 212.011719 155.003906 207.851562 153.375 204.605469 152.109375 C 202.316406 151.214844 200.734375 150.609375 199.453125 150.144531 C 199.722656 150.058594 199.917969 149.996094 200.210938 149.902344 C 205.902344 148.140625 217.601562 144.683594 227.839844 141.679688 C 238.089844 138.675781 246.878906 136.125 246.902344 136.125 C 257.5 133.171875 268.8125 131.671875 280 131.679688 C 285.59375 131.671875 291.171875 132.046875 296.613281 132.789062 C 300.566406 133.328125 304.453125 134.183594 308.265625 135.269531 L 299.414062 167.355469 C 296.867188 166.804688 294.253906 166.476562 291.550781 166.476562 Z M 320.875 180.1875 C 317 175.839844 312.269531 172.300781 306.96875 169.886719 L 315.816406 137.78125 C 325.738281 141.652344 334.777344 147.335938 342.097656 154.429688 C 346.664062 158.855469 350.546875 163.816406 353.625 169.210938 L 325.335938 186.230469 C 323.992188 184.101562 322.535156 182.050781 320.875 180.1875 Z M 298.800781 260.503906 C 297.902344 260.535156 296.984375 260.550781 296.066406 260.550781 C 294.207031 260.550781 292.316406 260.441406 290.433594 260.332031 L 288.476562 249.78125 C 298.792969 249.011719 308.878906 245.9375 316.921875 240.285156 C 322.574219 236.351562 327.199219 231.039062 329.949219 224.644531 L 348.84375 235.09375 C 337.457031 250.042969 319.351562 259.796875 298.800781 260.503906 Z M 332.199219 216.808594 C 332.5 214.976562 332.703125 213.105469 332.695312 211.160156 C 332.6875 204.90625 331.324219 198.875 328.992188 193.308594 L 357.066406 176.421875 C 359.78125 183.136719 361.351562 190.375 361.351562 198.082031 C 361.351562 209.210938 358.402344 219.523438 353.277344 228.453125 Z M 332.199219 216.808594 " fill-opacity="1" fill-rule="nonzero"/></g><path fill="#000000" d="M 241.332031 180.804688 C 239.886719 179.152344 237.378906 178.984375 235.726562 180.4375 L 216.8125 196.980469 C 215.160156 198.421875 214.988281 200.929688 216.441406 202.585938 C 217.882812 204.238281 220.390625 204.398438 222.046875 202.957031 L 240.957031 186.414062 C 242.609375 184.96875 242.78125 182.460938 241.332031 180.804688 Z M 241.332031 180.804688 " fill-opacity="1" fill-rule="nonzero"/><path fill="#000000" d="M 244.675781 205.667969 L 263.605469 189.113281 C 265.257812 187.671875 265.429688 185.164062 263.976562 183.507812 C 262.535156 181.855469 260.027344 181.6875 258.371094 183.128906 L 239.445312 199.683594 C 237.789062 201.132812 237.621094 203.640625 239.070312 205.292969 C 240.515625 206.945312 243.023438 207.117188 244.675781 205.667969 Z M 244.675781 205.667969 " fill-opacity="1" fill-rule="nonzero"/><path fill="#000000" d="M 270.628906 203.863281 L 289.898438 187.734375 C 291.582031 186.320312 291.808594 183.816406 290.402344 182.132812 C 288.988281 180.445312 286.484375 180.230469 284.796875 181.636719 L 265.519531 197.757812 C 263.84375 199.171875 263.621094 201.671875 265.023438 203.367188 C 266.4375 205.039062 268.945312 205.265625 270.628906 203.863281 Z M 270.628906 203.863281 " fill-opacity="1" fill-rule="nonzero"/><path fill="#000000" d="M 235.894531 142.316406 C 232.546875 142.316406 229.828125 145.027344 229.828125 148.382812 C 229.828125 151.726562 232.546875 154.453125 235.894531 154.453125 C 239.246094 154.453125 241.964844 151.726562 241.964844 148.382812 C 241.964844 145.027344 239.246094 142.316406 235.894531 142.316406 Z M 235.894531 142.316406 " fill-opacity="1" fill-rule="nonzero"/><g fill="#000000" fill-opacity="1"><g transform="translate(76.909524, 335.624974)"><g><path d="M 27.984375 -64.5625 C 31.410156 -64.5625 34.765625 -64.0625 38.046875 -63.0625 C 41.328125 -62.0625 43.757812 -61.078125 45.34375 -60.109375 L 47.65625 -58.5625 L 41.8125 -47.03125 C 41.351562 -47.34375 40.710938 -47.738281 39.890625 -48.21875 C 39.066406 -48.707031 37.523438 -49.363281 35.265625 -50.1875 C 33.015625 -51.007812 30.914062 -51.421875 28.96875 -51.421875 C 26.5625 -51.421875 24.703125 -50.90625 23.390625 -49.875 C 22.085938 -48.851562 21.4375 -47.472656 21.4375 -45.734375 C 21.4375 -44.859375 21.742188 -44.050781 22.359375 -43.3125 C 22.972656 -42.570312 24.023438 -41.773438 25.515625 -40.921875 C 27.003906 -40.078125 28.3125 -39.398438 29.4375 -38.890625 C 30.5625 -38.378906 32.300781 -37.609375 34.65625 -36.578125 C 38.757812 -34.835938 42.257812 -32.46875 45.15625 -29.46875 C 48.050781 -26.476562 49.5 -23.085938 49.5 -19.296875 C 49.5 -15.648438 48.84375 -12.46875 47.53125 -9.75 C 46.226562 -7.039062 44.4375 -4.914062 42.15625 -3.375 C 39.875 -1.84375 37.347656 -0.707031 34.578125 0.03125 C 31.816406 0.78125 28.820312 1.15625 25.59375 1.15625 C 22.820312 1.15625 20.101562 0.875 17.4375 0.3125 C 14.78125 -0.25 12.550781 -0.953125 10.75 -1.796875 C 8.957031 -2.648438 7.34375 -3.484375 5.90625 -4.296875 C 4.476562 -5.117188 3.429688 -5.8125 2.765625 -6.375 L 1.765625 -7.21875 L 9 -19.375 C 9.613281 -18.851562 10.457031 -18.195312 11.53125 -17.40625 C 12.601562 -16.613281 14.507812 -15.550781 17.25 -14.21875 C 19.988281 -12.882812 22.410156 -12.21875 24.515625 -12.21875 C 30.617188 -12.21875 33.671875 -14.296875 33.671875 -18.453125 C 33.671875 -19.316406 33.453125 -20.117188 33.015625 -20.859375 C 32.578125 -21.609375 31.804688 -22.351562 30.703125 -23.09375 C 29.597656 -23.832031 28.625 -24.421875 27.78125 -24.859375 C 26.9375 -25.296875 25.550781 -25.960938 23.625 -26.859375 C 21.707031 -27.753906 20.289062 -28.4375 19.375 -28.90625 C 15.53125 -30.800781 12.554688 -33.171875 10.453125 -36.015625 C 8.347656 -38.859375 7.296875 -41.914062 7.296875 -45.1875 C 7.296875 -50.875 9.394531 -55.523438 13.59375 -59.140625 C 17.800781 -62.753906 22.597656 -64.5625 27.984375 -64.5625 Z M 27.984375 -64.5625 "/></g></g></g><g fill="#000000" fill-opacity="1"><g transform="translate(124.710502, 335.624974)"><g><path d="M 4.609375 0 L 4.609375 -66.09375 L 18.21875 -66.09375 L 18.21875 -35.28125 L 18.375 -35.28125 C 21.90625 -38.8125 25.671875 -40.578125 29.671875 -40.578125 C 31.617188 -40.578125 33.550781 -40.320312 35.46875 -39.8125 C 37.394531 -39.300781 39.238281 -38.503906 41 -37.421875 C 42.769531 -36.347656 44.207031 -34.820312 45.3125 -32.84375 C 46.414062 -30.875 46.96875 -28.585938 46.96875 -25.984375 L 46.96875 0 L 33.359375 0 L 33.359375 -22.296875 C 33.359375 -24.335938 32.703125 -26.125 31.390625 -27.65625 C 30.085938 -29.195312 28.382812 -29.96875 26.28125 -29.96875 C 24.238281 -29.96875 22.382812 -29.171875 20.71875 -27.578125 C 19.050781 -25.992188 18.21875 -24.234375 18.21875 -22.296875 L 18.21875 0 Z M 4.609375 0 "/></g></g></g><g fill="#000000" fill-opacity="1"><g transform="translate(171.666104, 335.624974)"><g><path d="M 4.609375 0 L 4.609375 -39.421875 L 18.21875 -39.421875 L 18.21875 -33.734375 L 18.375 -33.734375 C 18.46875 -33.941406 18.628906 -34.195312 18.859375 -34.5 C 19.097656 -34.8125 19.597656 -35.351562 20.359375 -36.125 C 21.128906 -36.894531 21.953125 -37.585938 22.828125 -38.203125 C 23.703125 -38.816406 24.828125 -39.363281 26.203125 -39.84375 C 27.585938 -40.332031 29 -40.578125 30.4375 -40.578125 C 31.925781 -40.578125 33.382812 -40.375 34.8125 -39.96875 C 36.25 -39.5625 37.300781 -39.148438 37.96875 -38.734375 L 39.046875 -38.125 L 33.359375 -26.59375 C 31.671875 -28.03125 29.3125 -28.75 26.28125 -28.75 C 24.644531 -28.75 23.238281 -28.390625 22.0625 -27.671875 C 20.882812 -26.953125 20.050781 -26.078125 19.5625 -25.046875 C 19.070312 -24.023438 18.722656 -23.15625 18.515625 -22.4375 C 18.316406 -21.71875 18.21875 -21.15625 18.21875 -20.75 L 18.21875 0 Z M 4.609375 0 "/></g></g></g><g fill="#000000" fill-opacity="1"><g transform="translate(206.094908, 335.624974)"><g><path d="M 5.90625 -61.40625 C 7.5 -63 9.394531 -63.796875 11.59375 -63.796875 C 13.800781 -63.796875 15.695312 -63 17.28125 -61.40625 C 18.875 -59.820312 19.671875 -57.925781 19.671875 -55.71875 C 19.671875 -53.519531 18.875 -51.625 17.28125 -50.03125 C 15.695312 -48.445312 13.800781 -47.65625 11.59375 -47.65625 C 9.394531 -47.65625 7.5 -48.445312 5.90625 -50.03125 C 4.320312 -51.625 3.53125 -53.519531 3.53125 -55.71875 C 3.53125 -57.925781 4.320312 -59.820312 5.90625 -61.40625 Z M 4.609375 -39.421875 L 4.609375 0 L 18.21875 0 L 18.21875 -39.421875 Z M 4.609375 -39.421875 "/></g></g></g><g fill="#000000" fill-opacity="1"><g transform="translate(225.460816, 335.624974)"><g><path d="M 4.609375 0 L 4.609375 -39.421875 L 18.21875 -39.421875 L 18.21875 -35.28125 L 18.375 -35.28125 C 21.90625 -38.8125 25.671875 -40.578125 29.671875 -40.578125 C 32.535156 -40.578125 35.222656 -39.988281 37.734375 -38.8125 C 40.242188 -37.632812 42.140625 -35.816406 43.421875 -33.359375 C 47.421875 -38.171875 51.773438 -40.578125 56.484375 -40.578125 C 60.691406 -40.578125 64.304688 -39.398438 67.328125 -37.046875 C 70.347656 -34.691406 71.859375 -31.003906 71.859375 -25.984375 L 71.859375 0 L 58.265625 0 L 58.265625 -22.296875 C 58.265625 -24.390625 57.6875 -26.140625 56.53125 -27.546875 C 55.375 -28.960938 53.644531 -29.671875 51.34375 -29.671875 C 49.34375 -29.671875 47.816406 -29.066406 46.765625 -27.859375 C 45.710938 -26.660156 45.140625 -25.210938 45.046875 -23.515625 L 45.046875 0 L 31.4375 0 L 31.4375 -22.296875 C 31.4375 -24.390625 30.859375 -26.140625 29.703125 -27.546875 C 28.554688 -28.960938 26.828125 -29.671875 24.515625 -29.671875 C 22.410156 -29.671875 20.832031 -29.015625 19.78125 -27.703125 C 18.738281 -26.398438 18.21875 -24.851562 18.21875 -23.0625 L 18.21875 0 Z M 4.609375 0 "/></g></g></g><g fill="#000000" fill-opacity="1"><g transform="translate(297.316329, 335.624974)"><g><path d="M 45.1875 -34.546875 C 48.882812 -30.523438 50.734375 -25.59375 50.734375 -19.75 C 50.734375 -13.90625 48.882812 -8.957031 45.1875 -4.90625 C 41.5 -0.863281 36.8125 1.15625 31.125 1.15625 C 25.894531 1.15625 21.59375 -0.484375 18.21875 -3.765625 L 18.21875 19.984375 L 4.609375 19.984375 L 4.609375 -39.421875 L 18.0625 -39.421875 L 18.0625 -34.96875 L 18.21875 -34.96875 C 21.59375 -38.707031 25.894531 -40.578125 31.125 -40.578125 C 36.8125 -40.578125 41.5 -38.566406 45.1875 -34.546875 Z M 33.625 -13.0625 C 35.394531 -14.800781 36.28125 -17.03125 36.28125 -19.75 C 36.28125 -22.46875 35.429688 -24.679688 33.734375 -26.390625 C 32.046875 -28.109375 29.816406 -28.96875 27.046875 -28.96875 C 24.390625 -28.96875 22.203125 -28.097656 20.484375 -26.359375 C 18.765625 -24.617188 17.90625 -22.414062 17.90625 -19.75 C 17.90625 -17.03125 18.789062 -14.800781 20.5625 -13.0625 C 22.332031 -11.320312 24.492188 -10.453125 27.046875 -10.453125 C 29.660156 -10.453125 31.851562 -11.320312 33.625 -13.0625 Z M 33.625 -13.0625 "/></g></g></g><g fill="#000000" fill-opacity="1"><g transform="translate(345.962665, 335.624974)"><g><path d="M 4.609375 -63.40625 L 27.75 -63.40625 C 34.207031 -63.40625 39.429688 -61.738281 43.421875 -58.40625 C 47.421875 -55.082031 49.421875 -50.242188 49.421875 -43.890625 C 49.421875 -37.535156 47.394531 -32.550781 43.34375 -28.9375 C 39.300781 -25.320312 34.101562 -23.515625 27.75 -23.515625 L 19.0625 -23.515625 L 19.0625 0 L 4.609375 0 Z M 19.0625 -35.046875 L 23.140625 -35.046875 C 26.367188 -35.046875 29.019531 -35.695312 31.09375 -37 C 33.164062 -38.3125 34.203125 -40.453125 34.203125 -43.421875 C 34.203125 -46.441406 33.164062 -48.601562 31.09375 -49.90625 C 29.019531 -51.21875 26.367188 -51.875 23.140625 -51.875 L 19.0625 -51.875 Z M 19.0625 -35.046875 "/></g></g></g><g fill="#000000" fill-opacity="1"><g transform="translate(393.30252, 335.624974)"><g><path d="M 4.609375 -63.40625 L 27.28125 -63.40625 C 33.382812 -63.40625 38.351562 -61.773438 42.1875 -58.515625 C 46.03125 -55.265625 47.953125 -50.617188 47.953125 -44.578125 C 47.953125 -39.910156 46.785156 -36 44.453125 -32.84375 C 42.128906 -29.695312 38.96875 -27.484375 34.96875 -26.203125 L 56.796875 0 L 38.4375 0 L 19.0625 -25.0625 L 19.0625 0 L 4.609375 0 Z M 19.0625 -35.28125 L 20.75 -35.28125 C 22.082031 -35.28125 23.207031 -35.304688 24.125 -35.359375 C 25.050781 -35.410156 26.101562 -35.585938 27.28125 -35.890625 C 28.457031 -36.203125 29.40625 -36.640625 30.125 -37.203125 C 30.84375 -37.765625 31.457031 -38.582031 31.96875 -39.65625 C 32.476562 -40.738281 32.734375 -42.046875 32.734375 -43.578125 C 32.734375 -45.117188 32.476562 -46.425781 31.96875 -47.5 C 31.457031 -48.570312 30.84375 -49.390625 30.125 -49.953125 C 29.40625 -50.515625 28.457031 -50.945312 27.28125 -51.25 C 26.101562 -51.5625 25.050781 -51.742188 24.125 -51.796875 C 23.207031 -51.847656 22.082031 -51.875 20.75 -51.875 L 19.0625 -51.875 Z M 19.0625 -35.28125 "/></g></g></g><g fill="#000000" fill-opacity="1"><g transform="translate(444.484958, 335.624974)"><g><path d="M 1.765625 -31.75 C 1.765625 -40.914062 4.890625 -48.675781 11.140625 -55.03125 C 17.390625 -61.382812 24.921875 -64.5625 33.734375 -64.5625 C 42.597656 -64.5625 50.128906 -61.394531 56.328125 -55.0625 C 62.535156 -48.738281 65.640625 -40.96875 65.640625 -31.75 C 65.640625 -22.46875 62.585938 -14.660156 56.484375 -8.328125 C 50.390625 -2.003906 42.804688 1.15625 33.734375 1.15625 C 24.460938 1.15625 16.816406 -1.976562 10.796875 -8.25 C 4.773438 -14.53125 1.765625 -22.363281 1.765625 -31.75 Z M 17.375 -31.75 C 17.375 -28.414062 17.882812 -25.375 18.90625 -22.625 C 19.925781 -19.882812 21.71875 -17.566406 24.28125 -15.671875 C 26.84375 -13.773438 29.992188 -12.828125 33.734375 -12.828125 C 39.117188 -12.828125 43.179688 -14.671875 45.921875 -18.359375 C 48.660156 -22.054688 50.03125 -26.519531 50.03125 -31.75 C 50.03125 -36.914062 48.632812 -41.359375 45.84375 -45.078125 C 43.050781 -48.796875 39.015625 -50.65625 33.734375 -50.65625 C 28.515625 -50.65625 24.484375 -48.796875 21.640625 -45.078125 C 18.796875 -41.359375 17.375 -36.914062 17.375 -31.75 Z M 17.375 -31.75 "/></g></g></g></svg>